<svg id="Layer_1" data-name="Layer 1" xmlns="http://www.w3.org/2000/svg" viewBox="0 0 1110.54 175.39"><defs><style>.cls-1{fill:#fff;}</style></defs><path class="cls-1" d="M7122.79,7292.71h-60a42.72,42.72,0,0,1-42.72-42.72V7141.73A23.93,23.93,0,0,1,7044,7117.8h6a23.93,23.93,0,0,1,23.93,23.93V7237a7.84,7.84,0,0,0,7.84,7.84h41.06a23.94,23.94,0,0,1,23.93,23.94h0A23.94,23.94,0,0,1,7122.79,7292.71Z" transform="translate(-6825.75 -7117.36)"/><path class="cls-1" d="M6968.91,7292.66h-125.5a17.64,17.64,0,0,1-16.09-24.86l17.26-38.46,10.62-23.69,34.86-77.66a17.64,17.64,0,0,1,32.19,0L6985,7267.8A17.64,17.64,0,0,1,6968.91,7292.66Z" transform="translate(-6825.75 -7117.36)"/><path class="cls-1" d="M7568.19,7292.66h-125.5a17.64,17.64,0,0,1-16.09-24.86l17.26-38.46,10.63-23.69,34.85-77.66a17.65,17.65,0,0,1,32.2,0l62.74,139.81A17.63,17.63,0,0,1,7568.19,7292.66Z" transform="translate(-6825.75 -7117.36)"/><path class="cls-1" d="M7918.63,7292.66h-125.5A17.64,17.64,0,0,1,7777,7267.8l17.26-38.46,10.63-23.69,34.85-77.66a17.65,17.65,0,0,1,32.2,0l62.74,139.81A17.63,17.63,0,0,1,7918.63,7292.66Z" transform="translate(-6825.75 -7117.36)"/><path class="cls-1" d="M7176,7265.36V7144.74a27.38,27.38,0,0,1,27.38-27.38h0a27.38,27.38,0,0,1,27.38,27.38v120.62a27.38,27.38,0,0,1-27.38,27.38h0A27.38,27.38,0,0,1,7176,7265.36Z" transform="translate(-6825.75 -7117.36)"/><path class="cls-1" d="M7691.12,7190.09c36.77,0,59.89,17,59.89,47.66q0,13.38-4.64,23.5a47.34,47.34,0,0,1-12.51,16.75,56.19,56.19,0,0,1-20.41,11.33q-11.11,3.38-28.27,3.38h-66V7189.66S7654.36,7190.09,7691.12,7190.09Z" transform="translate(-6825.75 -7117.36)"/><path class="cls-1" d="M7691.12,7117.9c36.77,0,59.89,17,59.89,47.66q0,13.38-4.64,23.5a47.34,47.34,0,0,1-12.51,16.75,56.19,56.19,0,0,1-20.41,11.33q-11.11,3.38-28.27,3.38h-66V7117.47S7654.36,7117.9,7691.12,7117.9Z" transform="translate(-6825.75 -7117.36)"/><path class="cls-1" d="M7340.46,7190.09c36.76,0,59.89,17,59.89,47.66q0,13.38-4.65,23.5a47.19,47.19,0,0,1-12.5,16.75,56.28,56.28,0,0,1-20.41,11.33q-11.13,3.38-28.27,3.38h-66V7189.66S7303.7,7190.09,7340.46,7190.09Z" transform="translate(-6825.75 -7117.36)"/><path class="cls-1" d="M7340.46,7117.9c36.76,0,59.89,17,59.89,47.66q0,13.38-4.65,23.5a47.19,47.19,0,0,1-12.5,16.75,56.28,56.28,0,0,1-20.41,11.33q-11.13,3.38-28.27,3.38h-66V7117.47S7303.7,7117.9,7340.46,7117.9Z" transform="translate(-6825.75 -7117.36)"/></svg>