<?xml version="1.0" encoding="utf-8"?>
<!-- Generator: Adobe Illustrator 26.3.1, SVG Export Plug-In . SVG Version: 6.00 Build 0)  -->
<svg version="1.1" id="Layer_1" xmlns="http://www.w3.org/2000/svg" xmlns:xlink="http://www.w3.org/1999/xlink" x="0px" y="0px"
	 viewBox="0 0 1294.7 203" style="enable-background:new 0 0 1294.7 203;" xml:space="preserve">
<style type="text/css">
	.st0{fill:none;stroke:#FBB03A;stroke-width:17;stroke-miterlimit:10;}
</style>
<path class="st0" d="M787.4,26.4l-76,144.2c-1.9,3.5-0.5,7.9,3,9.8c1,0.5,2.2,0.8,3.4,0.8h152.8c4,0,7.2-3.2,7.2-7.3
	c0-1.2-0.3-2.4-0.8-3.4L800.2,26.3c-1.9-3.5-6.3-4.9-9.8-3C789.1,24,788.1,25.1,787.4,26.4z"/>
<path class="st0" d="M373,169.2c0,14-11.3,25.3-25.3,25.3c0,0,0,0,0,0h-83.5c-9.5,0-23.2-11.6-23.2-11.6s-15.4-16.8-15.4-28.7V30.7
	c0-11.5,9.3-20.9,20.9-20.9h18.5c11.5,0,20.9,9.3,20.9,20.9v115.2h63.8C362.5,145.9,373,156.3,373,169.2
	C373,169.2,373,169.2,373,169.2z"/>
<path class="st0" d="M417.9,8.5h43.3c5.8,0,10.5,4.7,10.5,10.5v163.8c0,5.8-4.7,10.4-10.5,10.4h-43.3c-5.8,0-10.5-4.7-10.5-10.4V19
	C407.5,13.2,412.2,8.5,417.9,8.5z"/>
<path class="st0" d="M671.1,145.1c0.1,12.5-4.7,24.6-13.3,33.7c-8.4,8.9-20,13.9-32.2,13.9H519V11.1h106.6
	c25.2,0,45.5,21.4,45.5,47.8c0.1,12.6-4.7,24.7-13.3,33.8c-3.6,3.8-7.9,7-12.6,9.4C660.5,109.8,671.1,126.2,671.1,145.1z"/>
<path class="st0" d="M1078.2,145.1c0.1,12.5-4.7,24.6-13.3,33.7c-8.4,8.9-20,13.9-32.2,13.9H926V11.1h106.6
	c25.1,0,45.5,21.4,45.5,47.8c0.1,12.6-4.7,24.7-13.3,33.8c-3.6,3.8-7.9,7-12.6,9.4C1067.6,109.8,1078.2,126.2,1078.2,145.1z"/>
<path class="st0" d="M83.6,28.7L15.7,146.2c-9.8,16.9,2.4,38,22,38h135.7c19.5,0,31.7-21.1,22-38L127.5,28.7
	C117.7,11.8,93.3,11.8,83.6,28.7z"/>
<path class="st0" d="M1169,28.7l-67.8,117.5c-9.8,16.9,2.4,38,22,38h135.7c19.5,0,31.7-21.1,22-38l-67.8-117.5
	C1203.2,11.8,1178.8,11.8,1169,28.7z"/>
</svg>
