<svg id="Layer_1" xmlns="http://www.w3.org/2000/svg" viewBox="0 0 1294.74 203.04">
        <defs>
            <style>
                .cls-1 {
                    fill: none;
                    stroke: #fbb03a;
                    stroke-miterlimit: 10;
                    stroke-width: 17px;
                }
            </style>
        </defs>
        <path class="cls-1 sign"
            d="M85.3,26.36L9.34,170.6c-2.54,4.82,.96,10.62,6.41,10.62H168.53c5.47,0,8.96-5.82,6.39-10.65L98.11,26.33c-2.73-5.13-10.1-5.12-12.8,.03Z" />
        <path class="cls-1 sign"
            d="M787.41,26.36l-75.96,144.24c-2.54,4.82,.96,10.62,6.41,10.62h152.77c5.47,0,8.96-5.82,6.39-10.65L800.21,26.33c-2.73-5.13-10.1-5.12-12.8,.03Z" />
        <path class="cls-1 sign"
            d="M1195.76,26.36l-75.96,144.24c-2.54,4.82,.96,10.62,6.41,10.62h152.77c5.47,0,8.96-5.82,6.39-10.65l-76.81-144.24c-2.73-5.13-10.1-5.12-12.8,.03Z" />
        <path class="cls-1 sign"
            d="M373.01,169.25c0,13.98-11.34,25.3-25.33,25.3h-83.54c-9.47,0-23.18-11.62-23.18-11.62,0,0-15.43-16.75-15.43-28.74V30.69c0-11.53,9.34-20.87,20.87-20.87h18.53c11.53,0,20.87,9.34,20.87,20.87v115.2h63.84c6.45,0,12.29,2.61,16.51,6.82s6.85,10.08,6.85,16.54Z" />
        <rect class="cls-1 sign" x="407.49" y="8.5" width="64.22" height="184.72" rx="10.45" ry="10.45" />
        <path class="cls-1 sign"
            d="M671.12,145.15c0,13.16-5.1,25.05-13.34,33.66-8.24,8.61-19.61,13.95-32.18,13.95h-106.62V11.14h106.62c25.14,0,45.52,21.42,45.52,47.83,0,13.22-5.1,25.14-13.34,33.81-3.66,3.84-7.9,7.01-12.6,9.41,15.34,7.65,25.94,24.01,25.94,42.97Z" />
        <path class="cls-1 sign"
            d="M1078.19,145.15c0,13.16-5.1,25.05-13.34,33.66s-19.61,13.95-32.18,13.95h-106.62V11.14h106.62c25.14,0,45.52,21.42,45.52,47.83,0,13.22-5.1,25.14-13.34,33.81-3.66,3.84-7.9,7.01-12.6,9.41,15.34,7.65,25.94,24.01,25.94,42.97Z" />
    </svg>