<?xml version="1.0" encoding="UTF-8"?><svg id="Layer_1" xmlns="http://www.w3.org/2000/svg" viewBox="0 0 416.71 61.53"><defs><style>.cls-1{fill:none;stroke:#fbb03a;stroke-miterlimit:10;}</style></defs><path class="cls-1" d="M25.49,6.31L.77,53.24c-.83,1.57,.31,3.46,2.09,3.46H52.57c1.78,0,2.92-1.9,2.08-3.47L29.65,6.3c-.89-1.67-3.28-1.66-4.17,0Z"/><path class="cls-1" d="M253.92,6.31l-24.71,46.93c-.83,1.57,.31,3.46,2.09,3.46h49.7c1.78,0,2.92-1.9,2.08-3.47l-24.99-46.93c-.89-1.67-3.28-1.66-4.17,0Z"/><path class="cls-1" d="M386.77,6.31l-24.71,46.93c-.83,1.57,.31,3.46,2.09,3.46h49.7c1.78,0,2.92-1.9,2.08-3.47l-24.99-46.93c-.89-1.67-3.28-1.66-4.17,0Z"/><path class="cls-1" d="M119.09,52.8c0,4.55-3.69,8.23-8.24,8.23h-27.18c-3.08,0-7.54-3.78-7.54-3.78,0,0-5.02-5.45-5.02-9.35V7.72c0-3.75,3.04-6.79,6.79-6.79h6.03c3.75,0,6.79,3.04,6.79,6.79V45.2h20.77c2.1,0,4,.85,5.37,2.22s2.23,3.28,2.23,5.38Z"/><rect class="cls-1" x="130.31" y=".5" width="20.89" height="60.1" rx="10.45" ry="10.45"/><path class="cls-1" d="M216.08,44.96c0,4.28-1.66,8.15-4.34,10.95s-6.38,4.54-10.47,4.54h-34.69V1.36h34.69c8.18,0,14.81,6.97,14.81,15.56,0,4.3-1.66,8.18-4.34,11-1.19,1.25-2.57,2.28-4.1,3.06,4.99,2.49,8.44,7.81,8.44,13.98Z"/><path class="cls-1" d="M348.52,44.96c0,4.28-1.66,8.15-4.34,10.95s-6.38,4.54-10.47,4.54h-34.69V1.36h34.69c8.18,0,14.81,6.97,14.81,15.56,0,4.3-1.66,8.18-4.34,11-1.19,1.25-2.57,2.28-4.1,3.06,4.99,2.49,8.44,7.81,8.44,13.98Z"/></svg>