<svg id="Layer_1" data-name="Layer 1" xmlns="http://www.w3.org/2000/svg" viewBox="0 0 1294.74 203.04"><defs><style>.cls-1{fill:none;stroke:#fbb03a;stroke-miterlimit:10;stroke-width:17px;}</style></defs><path class="cls-1" d="M85.3,26.36,9.34,170.6a7.25,7.25,0,0,0,6.41,10.62H168.53a7.24,7.24,0,0,0,6.39-10.65L98.11,26.33A7.25,7.25,0,0,0,85.3,26.36Z"/><path class="cls-1" d="M787.41,26.36l-76,144.24a7.25,7.25,0,0,0,6.41,10.62H870.63a7.25,7.25,0,0,0,6.4-10.65L800.21,26.33A7.24,7.24,0,0,0,787.41,26.36Z"/><path class="cls-1" d="M1195.76,26.36l-76,144.24a7.25,7.25,0,0,0,6.41,10.62H1279a7.25,7.25,0,0,0,6.39-10.65L1208.57,26.33A7.25,7.25,0,0,0,1195.76,26.36Z"/><path class="cls-1" d="M373,169.25a25.3,25.3,0,0,1-25.32,25.29H264.14c-9.46,0-23.17-11.62-23.17-11.62s-15.43-16.75-15.43-28.73V30.69A20.87,20.87,0,0,1,246.41,9.82h18.53a20.87,20.87,0,0,1,20.87,20.87v115.2h63.84A23.34,23.34,0,0,1,373,169.25Z"/><rect class="cls-1" x="407.49" y="8.5" width="64.22" height="184.72" rx="10.45"/><path class="cls-1" d="M671.12,145.15a48.54,48.54,0,0,1-13.34,33.66,44.44,44.44,0,0,1-32.18,13.95H519V11.14H625.6c25.15,0,45.52,21.42,45.52,47.82a48.88,48.88,0,0,1-13.34,33.81,46.39,46.39,0,0,1-12.6,9.41C660.52,109.83,671.12,126.18,671.12,145.15Z"/><path class="cls-1" d="M1078.19,145.15a48.54,48.54,0,0,1-13.34,33.66,44.45,44.45,0,0,1-32.18,13.95H926V11.14h106.63c25.14,0,45.52,21.42,45.52,47.82a48.88,48.88,0,0,1-13.34,33.81,46.54,46.54,0,0,1-12.6,9.41C1067.58,109.83,1078.19,126.18,1078.19,145.15Z"/></svg>